HIERARCHY
ROOT Hips
{
	OFFSET 0.000000 0.000000 0.000000
	CHANNELS 6 Xposition Yposition Zposition Xrotation Yrotation Zrotation
	JOINT LeftUpLeg_virtual
	{
		OFFSET 0.000000 0.000000 0.000000
		CHANNELS 3 Xrotation Yrotation Zrotation
		JOINT LeftUpLeg
		{
			OFFSET 11.394100 -6.187798 -0.413800
			CHANNELS 3 Xrotation Yrotation Zrotation
			JOINT LeftLeg
			{
				OFFSET 0.430247 -32.302673 3.732800
				CHANNELS 3 Xrotation Yrotation Zrotation
				JOINT LeftFoot
				{
					OFFSET -0.430247 -48.264931 -6.423300
					CHANNELS 3 Xrotation Yrotation Zrotation
					JOINT LeftToeBase
					{
						OFFSET 4.230900 -16.068199 23.438400
						CHANNELS 3 Xrotation Yrotation Zrotation
						JOINT LeftToe_End
						{
							OFFSET 4.510700 0.695400 19.974600
							CHANNELS 3 Xrotation Yrotation Zrotation
							End Site
							{
								OFFSET 0 0 0
							}
						}
					}
				}
			}
		}
	}
	JOINT RightUpLeg_virtual
	{
		OFFSET 0.000000 0.000000 0.000000
		CHANNELS 3 Xrotation Yrotation Zrotation
		JOINT RightUpLeg
		{
			OFFSET -11.333700 -6.187798 -0.413800
			CHANNELS 3 Xrotation Yrotation Zrotation
			JOINT RightLeg
			{
				OFFSET -0.430392 -32.302628 3.733000
				CHANNELS 3 Xrotation Yrotation Zrotation
				JOINT RightFoot
				{
					OFFSET 0.430392 -48.264973 -6.423500
					CHANNELS 3 Xrotation Yrotation Zrotation
					JOINT RightToeBase
					{
						OFFSET -4.230900 -16.068199 23.438400
						CHANNELS 3 Xrotation Yrotation Zrotation
						JOINT RightToe_End
						{
							OFFSET -4.510700 0.695400 19.974600
							CHANNELS 3 Xrotation Yrotation Zrotation
							End Site
							{
								OFFSET 0 0 0
							}
						}
					}
				}
			}
		}
	}
	JOINT Spine_virtual
	{
		OFFSET 0.000000 0.000000 0.000000
		CHANNELS 3 Xrotation Yrotation Zrotation
		JOINT Spine
		{
			OFFSET -0.002400 12.777504 0.315300
			CHANNELS 3 Xrotation Yrotation Zrotation
			JOINT Spine1
			{
				OFFSET -0.002067 5.816869 0.032633
				CHANNELS 3 Xrotation Yrotation Zrotation
				JOINT Spine1_split
				{
					OFFSET -0.002067 5.816869 0.032633
					CHANNELS 3 Xrotation Yrotation Zrotation
					JOINT Spine2
					{
						OFFSET -0.002067 5.816869 0.032633
						CHANNELS 3 Xrotation Yrotation Zrotation
						JOINT Neck_virtual
						{
							OFFSET 0.000000 0.000000 0.000000
							CHANNELS 3 Xrotation Yrotation Zrotation
							JOINT Neck
							{
								OFFSET -0.003700 21.199493 -0.826900
								CHANNELS 3 Xrotation Yrotation Zrotation
								JOINT Head
								{
									OFFSET 0.000000 20.442200 4.834800
									CHANNELS 3 Xrotation Yrotation Zrotation
									JOINT HeadTop_End
									{
										OFFSET 0.000000 34.668396 4.968400
										CHANNELS 3 Xrotation Yrotation Zrotation
										End Site
										{
											OFFSET 0 0 0
										}
									}
								}
							}
						}
						JOINT LeftShoulder_virtual
						{
							OFFSET 0.000000 0.000000 0.000000
							CHANNELS 3 Xrotation Yrotation Zrotation
							JOINT LeftShoulder
							{
								OFFSET 3.288150 8.794197 -1.372250
								CHANNELS 3 Xrotation Yrotation Zrotation
								JOINT LeftShoulder_split
								{
									OFFSET 3.288150 8.794197 -1.372250
									CHANNELS 3 Xrotation Yrotation Zrotation
									JOINT LeftArm
									{
										OFFSET 11.953299 -2.279007 -0.146200
										CHANNELS 3 Xrotation Yrotation Zrotation
										JOINT LeftForeArm
										{
											OFFSET 18.448900 0.000000 0.000000
											CHANNELS 3 Xrotation Yrotation Zrotation
											JOINT LeftHand
											{
												OFFSET 29.527798 0.000000 0.000000
												CHANNELS 3 Xrotation Yrotation Zrotation
												End Site
												{
													OFFSET 0 0 0
												}
											}
										}
									}
								}
							}
						}
						JOINT RightShoulder_virtual
						{
							OFFSET 0.000000 0.000000 0.000000
							CHANNELS 3 Xrotation Yrotation Zrotation
							JOINT RightShoulder
							{
								OFFSET -3.249400 8.794197 -1.372250
								CHANNELS 3 Xrotation Yrotation Zrotation
								JOINT RightShoulder_split
								{
									OFFSET -3.249400 8.794197 -1.372250
									CHANNELS 3 Xrotation Yrotation Zrotation
									JOINT RightArm
									{
										OFFSET -11.953299 -2.279007 -0.146200
										CHANNELS 3 Xrotation Yrotation Zrotation
										JOINT RightForeArm
										{
											OFFSET -18.448900 0.000000 0.000000
											CHANNELS 3 Xrotation Yrotation Zrotation
											JOINT RightHand
											{
												OFFSET -29.527802 0.000000 0.000000
												CHANNELS 3 Xrotation Yrotation Zrotation
												End Site
												{
													OFFSET 0 0 0
												}
											}
										}
									}
								}
							}
						}
					}
				}
			}
		}
	}
}
MOTION
Frames: 10
Frame Time: 0.03333333
-23.102407 141.511520 31.249949 0.000000 0.000000 0.000000 6.291052 -16.829716 0.953873 -21.290960 5.745354 6.193545 27.724978 13.432733 6.757594 26.691104 -2.084647 1.721937 3.957135 1.244519 0.778271 0.000000 0.000000 0.000000 6.085248 -16.858903 0.279901 -10.720559 -3.827319 -2.245132 12.032527 -16.318939 -0.725629 37.898251 -2.238727 -6.407210 17.698309 -5.709528 1.018011 0.000000 0.000000 0.000000 6.095633 -15.699945 0.388338 0.021687 3.875809 4.232881 -5.227376 1.258177 -1.628100 2.214103 -2.449548 0.422582 0.000000 0.000000 0.000000 -0.788773 1.295689 -2.387025 -27.886684 2.224838 -0.388154 -7.173441 3.409897 4.239156 0.000000 0.000000 0.000000 -3.894294 1.311080 -1.879618 4.304677 -3.162506 22.227351 4.338023 6.460880 0.867021 -56.653127 -25.356579 23.483152 -23.854197 -46.593095 9.659998 0.000000 0.000000 0.000000 -3.553475 0.862312 -1.437617 -4.826108 -11.846239 -26.414064 -0.776363 -2.247509 -2.156712 -84.925814 34.754461 33.851036 -31.394261 43.765151 -4.147252 0.000000 0.000000 0.000000 
-23.505688 138.161819 32.249546 0.000000 0.000000 0.000000 5.074258 -15.448512 0.230575 -24.207403 7.248878 7.247264 30.239409 13.615854 5.884981 33.607317 -2.187709 3.450034 5.545698 1.387735 0.564778 0.000000 0.000000 0.000000 5.452388 -13.617975 -0.457391 -11.992123 -5.802267 -4.600807 17.285172 -14.043843 0.167337 44.481378 0.695334 -3.855636 15.343960 -3.224475 -0.349816 0.000000 0.000000 0.000000 4.322505 -13.603777 -0.386310 0.559986 4.104817 4.419679 -5.544502 1.147143 -1.291210 2.619550 -2.901506 0.758360 0.000000 0.000000 0.000000 -1.627243 1.230131 -1.873083 -27.462046 1.478180 -1.329863 -7.698906 1.887296 4.333714 0.000000 0.000000 0.000000 -4.462856 1.153231 -1.452356 5.143272 -2.144217 24.448654 3.491440 4.865200 1.879637 -52.403284 -19.569298 19.463790 -20.350386 -50.786087 11.877836 0.000000 0.000000 0.000000 -4.267434 0.818893 -0.968816 -2.617042 -9.907975 -24.160696 -1.581344 -2.933339 -2.019593 -79.939059 39.353303 31.689363 -30.569816 39.599593 -0.159897 0.000000 0.000000 0.000000 
-23.834263 134.744965 33.372631 0.000000 0.000000 0.000000 3.938313 -14.153043 -0.405777 -26.833074 8.297356 8.010537 31.902304 13.796546 5.255191 38.677869 -1.940143 6.062517 7.272380 1.441602 0.056858 0.000000 0.000000 0.000000 4.881499 -10.356939 -0.969398 -12.348897 -6.329132 -5.773407 20.294685 -12.123652 0.279433 49.954976 2.937213 -1.402793 12.473951 -0.953878 -0.703923 0.000000 0.000000 0.000000 2.534036 -11.884717 -0.929315 0.956665 4.167055 4.433958 -5.911095 0.995191 -0.862503 2.479272 -3.082246 0.743708 0.000000 0.000000 0.000000 -2.719369 1.147920 -1.280909 -26.788670 1.191121 -2.479736 -7.549827 0.461904 4.310973 0.000000 0.000000 0.000000 -5.042259 0.983883 -0.949863 5.491292 -0.045847 27.289906 2.435604 2.987230 2.547973 -49.680443 -16.792548 14.387087 -19.311448 -51.009670 12.281432 0.000000 0.000000 0.000000 -5.253357 0.755841 -0.415741 -0.692174 -7.301236 -23.878191 -1.816566 -3.193419 -1.578281 -75.571966 41.290454 28.503315 -29.416679 34.126473 2.493276 0.000000 0.000000 0.000000 
-24.125113 132.031738 34.804111 0.000000 0.000000 0.000000 3.032719 -12.982581 -0.911354 -28.139568 8.625447 8.020690 32.732428 14.301202 5.117586 41.028007 -1.082222 8.890466 9.130150 1.488536 -0.861886 0.000000 0.000000 0.000000 4.386058 -7.575266 -1.231167 -11.538403 -5.832300 -5.544463 20.523117 -11.559691 -0.047891 52.739924 2.953636 -0.552871 12.214451 0.730110 0.415839 0.000000 0.000000 0.000000 1.122579 -10.602716 -1.190832 1.062683 4.109182 4.326787 -6.359867 0.851923 -0.434998 1.810581 -2.773092 0.450417 0.000000 0.000000 0.000000 -3.926335 1.067913 -0.736284 -25.735104 1.053033 -3.687026 -6.786584 -0.672753 4.177774 0.000000 0.000000 0.000000 -5.651739 0.855116 -0.499078 5.448914 2.389756 30.381621 1.597332 1.377220 2.886555 -49.074701 -17.030826 9.588062 -21.095032 -47.585412 10.579187 0.000000 0.000000 0.000000 -6.370565 0.724501 0.111782 0.838725 -4.673877 -25.562770 -1.658406 -2.741600 -0.885095 -73.690733 40.860650 25.991298 -28.072622 28.650683 3.850417 0.000000 0.000000 0.000000 
-24.303143 130.362396 36.599602 0.000000 0.000000 0.000000 2.443639 -12.025057 -1.251756 -27.727867 8.318626 7.445871 32.898651 14.980656 5.457316 41.473520 0.004766 10.733764 10.302416 1.554953 -1.907501 0.000000 0.000000 0.000000 3.784395 -5.667694 -1.306924 -10.061402 -4.859886 -4.344395 19.012398 -12.198987 -0.607161 53.209404 1.104092 -0.755666 12.693457 1.651868 2.028610 0.000000 0.000000 0.000000 0.224192 -9.727339 -1.142549 0.804411 3.943500 4.137067 -6.899657 0.740124 -0.130917 1.189711 -2.263008 0.065612 0.000000 0.000000 0.000000 -5.111968 0.968663 -0.343843 -24.298524 0.807182 -4.773573 -5.516574 -1.410189 3.957610 0.000000 0.000000 0.000000 -6.287048 0.811964 -0.252079 5.229114 4.508911 33.209083 1.258494 0.157995 2.720157 -50.590142 -19.847106 5.493726 -24.104501 -41.933919 8.033450 0.000000 0.000000 0.000000 -7.332269 0.751564 0.490859 1.965907 -2.660043 -28.736013 -1.462768 -1.757258 0.211228 -74.411735 39.033691 24.778526 -26.735920 24.480312 4.244292 0.000000 0.000000 0.000000 
-24.510023 129.610687 38.756241 0.000000 0.000000 0.000000 1.805756 -11.065485 -1.330574 -26.156095 7.865540 6.604185 32.443802 15.631656 6.048872 41.024496 0.743348 11.190994 9.984213 1.700764 -2.532410 0.000000 0.000000 0.000000 2.966126 -4.685876 -1.187812 -8.890301 -4.101605 -3.029295 17.998527 -13.329842 -0.885821 53.727822 -1.014852 -0.652584 10.749392 1.804791 3.099321 0.000000 0.000000 0.000000 -0.214116 -8.972174 -0.830637 0.305151 3.706029 3.910770 -7.493500 0.650277 0.013481 0.569553 -1.623512 -0.140172 0.000000 0.000000 0.000000 -6.181963 0.855703 -0.168313 -22.492207 0.415721 -5.582449 -3.886015 -1.737965 3.686657 0.000000 0.000000 0.000000 -6.931147 0.845867 -0.249134 5.068732 5.932675 35.306129 1.493286 -0.372967 2.074925 -53.260815 -23.792827 2.294532 -26.841716 -35.975979 5.786470 0.000000 0.000000 0.000000 -8.049030 0.845979 0.656026 2.648668 -1.541059 -32.561926 -1.156815 -0.328989 1.371225 -76.480961 36.647452 24.543501 -25.599259 22.579676 4.072047 0.000000 0.000000 0.000000 
-24.841843 129.540237 40.930210 0.000000 0.000000 0.000000 1.021629 -10.182144 -1.156736 -24.067015 8.112981 5.923829 31.625507 16.180573 6.581873 40.334046 1.006925 10.607796 8.693417 1.856421 -2.456040 0.000000 0.000000 0.000000 1.854892 -4.191805 -0.850655 -8.342262 -3.917139 -2.301435 17.775733 -13.715984 -0.809441 55.073134 -1.341478 0.851012 6.497177 1.407735 2.962731 0.000000 0.000000 0.000000 -0.433606 -8.180722 -0.337701 -0.294858 3.408341 3.719118 -8.101748 0.565570 -0.010899 0.445689 -0.916128 -0.088935 0.000000 0.000000 0.000000 -7.072995 0.744159 -0.204318 -20.599342 -0.080568 -6.093490 -2.181714 -1.604343 3.338575 0.000000 0.000000 0.000000 -7.573745 0.927823 -0.471283 5.169395 6.520548 36.425962 2.681264 -0.229833 1.209727 -56.003129 -27.630639 -0.118882 -28.648788 -31.436004 4.145303 0.000000 0.000000 0.000000 -8.475643 0.989982 0.604307 2.989851 -1.225179 -36.113509 -0.825984 1.159106 2.422049 -78.286986 34.332325 24.795262 -24.612105 22.948730 3.630515 0.000000 0.000000 0.000000 
-25.261868 129.705750 43.126125 0.000000 0.000000 0.000000 0.049730 -9.379382 -0.828991 -22.238773 9.408146 5.536184 30.437693 16.743859 6.802040 39.602386 0.912186 9.535475 7.210924 1.958402 -1.684113 0.000000 0.000000 0.000000 0.605859 -3.995603 -0.501013 -8.253988 -4.428442 -2.168464 17.683155 -13.265993 -0.578608 55.868338 -0.043622 2.770999 2.387721 0.915868 1.819264 0.000000 0.000000 0.000000 -0.758300 -7.480316 0.171906 -0.853517 3.049296 3.563268 -8.684049 0.474192 -0.137052 0.382224 -0.631989 0.181989 0.000000 0.000000 0.000000 -7.776972 0.626403 -0.365193 -18.737553 -0.516315 -6.321612 -0.599484 -1.056815 2.875771 0.000000 0.000000 0.000000 -8.167328 1.009616 -0.819392 5.574663 6.443106 36.623737 4.013581 0.491506 0.242069 -57.947079 -30.654476 -1.716246 -29.305050 -28.659672 3.188366 0.000000 0.000000 0.000000 -8.668850 1.121150 0.401972 3.067906 -1.516050 -38.808025 -0.395533 2.221324 3.118269 -78.770646 32.666920 24.986420 -23.806071 24.792581 3.050197 0.000000 0.000000 0.000000 
-25.745211 129.831207 44.865475 0.000000 0.000000 0.000000 -1.100283 -8.591862 -0.466777 -21.027892 11.668827 5.387827 28.689964 17.443388 6.685418 38.790953 0.754782 8.640580 5.797681 2.010329 -0.259700 0.000000 0.000000 0.000000 -0.571706 -3.601295 -0.188269 -7.860971 -5.648963 -2.429205 17.544762 -13.000758 -0.207990 55.283971 1.051727 3.367614 0.887615 0.683794 0.551875 0.000000 0.000000 0.000000 -1.318193 -6.930936 0.550425 -1.287867 2.644274 3.480275 -9.171044 0.396391 -0.272040 0.309917 -0.750126 0.410969 0.000000 0.000000 0.000000 -8.312843 0.538285 -0.561868 -17.075903 -0.791252 -6.366126 0.722508 -0.135930 2.324959 0.000000 0.000000 0.000000 -8.685570 1.046460 -1.135999 6.205242 5.909563 36.250618 5.206668 1.431958 -0.402326 -58.491145 -32.292540 -2.240622 -29.052449 -27.589856 2.824058 0.000000 0.000000 0.000000 -8.802258 1.200569 0.168524 3.088698 -2.123347 -40.346925 0.218628 2.835380 3.215277 -77.934583 31.805746 24.948195 -23.257013 27.247011 2.521451 0.000000 0.000000 0.000000 
-26.200197 129.816833 46.168842 0.000000 0.000000 0.000000 -2.129242 -8.096847 -0.199837 -20.503608 14.347263 5.422139 26.897085 18.246444 6.373532 38.184121 0.807040 8.005380 4.765188 2.012267 1.343975 0.000000 0.000000 0.000000 -1.547192 -2.854354 -0.006797 -7.078135 -7.282047 -2.829021 16.844003 -13.365976 0.145233 53.515335 0.973501 2.331503 2.287328 0.611784 -0.370032 0.000000 0.000000 0.000000 -2.089632 -6.520670 0.719503 -1.620111 2.228293 3.446120 -9.518056 0.363213 -0.356020 0.508263 -1.334688 0.453136 0.000000 0.000000 0.000000 -8.661567 0.480382 -0.676624 -15.738433 -0.836913 -6.335562 1.689772 1.102151 1.741774 0.000000 0.000000 0.000000 -9.119578 1.049134 -1.330993 6.957894 5.218790 35.736294 5.747928 2.523410 -0.744008 -58.041636 -32.893293 -2.009428 -28.095208 -27.585775 2.978580 0.000000 0.000000 0.000000 -8.931997 1.225010 -0.007353 3.204799 -2.807391 -40.786232 0.833652 3.047033 3.037964 -76.350928 31.925076 24.644815 -23.009622 29.456311 2.121121 0.000000 0.000000 0.000000 
